<svg xmlns="http://www.w3.org/2000/svg" xmlns:xlink="http://www.w3.org/1999/xlink" width="100" height="100" viewBox="0 0 100 100">
  <defs>
    <clipPath id="clip-path">
      <rect id="Rectangle_81" data-name="Rectangle 81" width="100" height="100" fill="#fff"/>
    </clipPath>
    <clipPath id="clip-Check">
      <rect width="100" height="100"/>
    </clipPath>
  </defs>
  <g id="Check" clip-path="url(#clip-Check)">
    <g id="Check-2" data-name="Check" clip-path="url(#clip-path)">
      <g id="Group_3" data-name="Group 3" transform="translate(-326.527 -430.993)">
        <path id="Path_505" data-name="Path 505" d="M326.527,479.98a8.824,8.824,0,0,1,2.559-4.822c3.4-3.035,7.972-2.817,11.374.577q10.615,10.588,21.187,21.219c.736.744,1.081.659,1.77-.031q24.557-24.617,49.155-49.193a8.04,8.04,0,0,1,8.633-2.307,7.927,7.927,0,0,1,3.71,12.248,17.492,17.492,0,0,1-1.231,1.385q-27.515,27.53-55.034,55.056c-2.466,2.468-5.3,3.45-8.7,2.376a8.234,8.234,0,0,1-3.324-2.157q-13.746-13.742-27.494-27.481a9.649,9.649,0,0,1-2.6-4.916Z" fill="#fff"/>
      </g>
    </g>
  </g>
</svg>
